HIERARCHY
ROOT pelvis
{
  OFFSET 0 100 0
  CHANNELS 6 Xposition Yposition Zposition Zrotation Xrotation Yrotation
  JOINT pelvis_right_femur
  {
    OFFSET -10.78128 -3.44521 -0.5502486
    CHANNELS 3 Zrotation Xrotation Yrotation
    JOINT right_femur_tibia
    {
      OFFSET -0.8047443 -44.0398 -0.1307829
      CHANNELS 3 Zrotation Xrotation Yrotation
      JOINT right_tibia_foot
      {
        OFFSET 3.006224 -47.83518 -5
        CHANNELS 3 Zrotation Xrotation Yrotation
        End Site
        {
          OFFSET 0 -5 15
        }
      }
    }
  }
  JOINT pelvis_left_femur
  {
    OFFSET 10.78128 -3.44521 -0.5502486
    CHANNELS 3 Zrotation Xrotation Yrotation
    JOINT left_femur_tibia
    {
      OFFSET 0.8047443 -44.0398 -0.1307829
      CHANNELS 3 Zrotation Xrotation Yrotation
      JOINT left_tibia_foot
      {
        OFFSET -4.370144 -48.10324 -4.275266
        CHANNELS 3 Zrotation Xrotation Yrotation
        End Site
        {
          OFFSET 0 -5 15
        }
      }
    }
  }
  JOINT pelvis_spine1
  {
    OFFSET 0 6.468898 -3.129235
    CHANNELS 3 Zrotation Xrotation Yrotation
    JOINT spine1
    {
      OFFSET 0 23.15396 4.99043
      CHANNELS 3 Zrotation Xrotation Yrotation
      JOINT spine2
      {
        OFFSET 0 20.79997 -5.064912
        CHANNELS 3 Zrotation Xrotation Yrotation
        JOINT neck
        {
          OFFSET 0 14.38658 9.616178
          CHANNELS 3 Zrotation Xrotation Yrotation
          End Site
          {
            OFFSET 0 20 0
          }
        }
      }
      JOINT right_manubrium
      {
        OFFSET -5.722621 16.35077 3.967754
        CHANNELS 3 Zrotation Xrotation Yrotation
        JOINT right_clavicle
        {
          OFFSET -13.16364 1.694482 -4.693211
          CHANNELS 3 Zrotation Xrotation Yrotation
          JOINT right_humerus
          {
            OFFSET -28.5034 -0.3100689 -2.792744
            CHANNELS 3 Zrotation Xrotation Yrotation
            JOINT right_radius
            {
              OFFSET -25.15693 0.02248979 -1.271978
              CHANNELS 3 Zrotation Xrotation Yrotation
              End Site
              {
                OFFSET -15 0 0
              }
            }
          }
        }
      }
      JOINT left_manubrium
      {
        OFFSET 5.722621 16.35077 3.967754
        CHANNELS 3 Zrotation Xrotation Yrotation
        JOINT left_clavicle
        {
          OFFSET 13.16364 1.694482 -4.693211
          CHANNELS 3 Zrotation Xrotation Yrotation
          JOINT left_humerus
          {
            OFFSET 29.39168 -1.063119 -2.237045
            CHANNELS 3 Zrotation Xrotation Yrotation
            JOINT left_radius
            {
              OFFSET 24.59957 -0.9528479 0.9047498
              CHANNELS 3 Zrotation Xrotation Yrotation
              End Site
              {
                OFFSET 15 -0 -0
              }
            }
          }
        }
      }
    }
  }
}
MOTION
Frames: 13
Frame Time: 0.0416666666667
28.41342 100.8428 255.1446 -0.01599231 -7.244481 -2.465816 2.652399 17.54351 7.526364 -0 21.24585 -0 0.4966435 -16.66741 -6.726915 4.25072 -27.70188 -0.2313436 -0 21.77037 -0 -6.097928 -7.050827 19.79034 0.268124 1.591976 8.631685 -1.701705 9.796186 -2.206963 1.309378 18.57543 7.081083 3.21412 -21.9821 7.383294 3.638375 -22.19498 12.31011 75.88174 17.80032 2.659246 -0 0 26.93334 -24.707 11.90288 17.9883 1.830332 -14.23819 -2.520863 -91.78485 20.03609 26.09035 0 0 -12.52433 -4.726195 6.204991 19.0771
29.68575 100.2366 262.4436 0.7459295 -6.871148 -2.411109 1.27953 18.51186 7.361438 -0 25.6 -0 2.752946 -14.2632 -6.705405 1.455138 -25.57218 -2.277287 -0 23.54927 -0 -5.97239 -7.724406 19.17027 -0.2710887 0.6473705 9.030849 -1.934167 9.38628 -2.117951 1.490269 18.83449 6.772328 3.192862 -21.53088 7.178398 3.387275 -22.12475 11.61687 76.08103 17.57821 2.754305 -0 0 27.12878 -24.94807 11.77116 18.0366 1.712064 -13.47704 -2.22138 -91.77938 20.23236 26.33801 0 0 -11.62081 -4.862507 6.27735 19.44237
30.97115 100.1507 270.1608 1.784097 -7.075214 -2.14645 -0.3977851 19.19537 7.316677 -0 31.97536 -0 4.979897 -10.65244 -7.227133 -0.9361565 -23.36304 -4.128682 -0 25.30313 -0 -5.900043 -8.311657 18.62324 -1.263288 -0.3511772 9.244697 -2.065828 9.281861 -2.126051 1.72603 19.15875 6.513393 3.235909 -20.90945 7.057771 3.249821 -21.29182 10.89244 77.11264 17.81146 1.69454 -0 0 26.04346 -24.8655 11.78498 17.69815 1.818847 -12.86591 -1.959362 -91.417 20.48424 25.93226 0 0 -11.26095 -4.869059 6.416246 19.51457
32.10857 100.9828 277.8287 2.214632 -7.780654 -1.077935 -2.020496 17.32853 6.896185 -0 39.52304 -0 6.623041 -8.013351 -8.32175 -2.951096 -19.24337 -5.565741 -0 26.92467 -0 -5.647309 -9.604599 18.12124 -1.894553 -0.7454655 8.915597 -2.010965 9.520874 -2.33548 1.943703 19.49658 6.298337 3.25832 -20.33143 7.004652 3.382331 -19.79851 10.34207 78.73219 18.41071 -0.3900143 -0 0 23.66982 -24.39915 11.94698 16.87966 1.828601 -12.76037 -1.86047 -90.52543 20.84385 24.68066 0 0 -11.36931 -4.733155 6.636686 19.28468
33.31772 101.8581 284.7221 2.984335 -8.052343 -0.4124987 -2.079721 14.75352 5.678201 -0 47.70113 -0 8.157385 -4.860071 -9.580846 -4.61101 -14.88535 -6.70616 -0 27.13604 -0 -5.211206 -11.49351 17.55785 -2.511844 -0.6712807 8.359285 -2.141541 9.485236 -2.490583 1.904144 19.73588 6.279291 3.104378 -19.79295 7.045934 3.670812 -18.77103 10.2458 80.29257 19.23287 -2.3119 -0 0 20.96372 -23.71907 12.22709 15.96212 1.714318 -13.02783 -2.031308 -89.24273 21.26362 22.58369 0 0 -11.83049 -4.478322 6.928272 18.83338
34.32655 103.0284 290.7075 3.154149 -8.334151 0.6431824 -1.806969 9.844574 4.788779 -0 53.41801 -0 8.080232 -4.299001 -10.61829 -5.541597 -9.501419 -7.136591 -0 25.68907 -0 -4.928747 -13.19198 17.00378 -2.743414 -0.07996649 7.204401 -2.040126 9.340132 -3.00766 1.856052 20.11138 6.317845 2.913743 -19.20532 7.198882 3.933039 -17.91969 10.18838 81.8041 20.12379 -4.308941 -0 0 18.15958 -22.91884 12.53764 15.00436 1.554745 -13.90917 -2.592419 -87.69814 21.75069 19.76605 0 0 -12.53381 -4.147764 7.308778 18.28121
35.14388 104.7118 296.9604 2.752509 -9.507101 1.87403 -1.001963 2.257876 3.914926 -0 55.75388 -0 7.181282 -5.588597 -10.70462 -5.387946 -3.656031 -7.383499 -0 23.74885 -0 -4.968179 -14.30402 16.4528 -2.617435 0.9259647 5.637472 -1.51156 9.519618 -4.020533 1.819854 20.61422 6.432817 2.72533 -18.63245 7.482619 4.025962 -16.89831 9.898031 83.45741 20.93421 -6.682611 -0 0 15.45789 -22.05699 12.80467 14.07716 1.460812 -14.77369 -3.411147 -86.08376 22.28532 16.57056 0 0 -13.29966 -3.847003 7.751118 17.69674
36.04881 105.7079 302.4005 2.456932 -9.349295 3.414153 -0.2490157 -4.751427 3.103043 -0 53.81909 -0 5.831078 -6.389443 -11.00095 -5.167064 1.759996 -7.524314 -0 20.38535 -0 -5.082581 -15.50111 15.61199 -2.443337 1.492125 4.0661 -0.9585579 9.137838 -5.415149 1.895493 20.97391 6.503963 2.598274 -18.07442 7.78457 3.376094 -16.175 9.388951 84.56659 21.59976 -8.887801 -0 0 13.31285 -21.37764 12.99525 13.37584 1.670491 -15.70406 -4.34898 -84.36148 22.76948 13.00403 0 0 -14.43442 -3.474437 8.27162 16.87883
36.90278 106.1053 308.1252 2.281643 -8.966381 5.113699 -0.1015623 -10.93898 2.455678 -0 48.26576 -0 4.260238 -6.705366 -11.42498 -4.786422 6.48034 -7.743702 -0 17.41556 -0 -5.223563 -16.76746 14.65657 -2.455938 1.773905 2.726843 -0.2060196 8.736836 -6.967317 2.028363 21.16233 6.5166 2.50609 -17.65039 8.045134 2.556138 -15.22087 8.673712 85.56329 22.1407 -11.36581 -0 0 11.12929 -20.60509 13.13555 12.59982 2.175358 -16.52439 -5.245332 -82.5311 23.13342 9.449038 0 0 -15.75537 -3.036746 8.792636 15.87498
37.59172 105.7068 313.6332 2.18158 -8.067216 6.110577 -0.84683 -15.52633 1.510193 -0 38.91036 -0 2.509666 -7.137832 -11.62461 -4.485674 10.1871 -7.911993 -0 15.16055 -0 -5.336452 -18.27594 13.78723 -2.626826 2.118788 1.862446 0.5145888 8.14409 -8.165683 2.127234 21.32371 6.445754 2.402115 -17.28725 8.162099 1.775748 -14.28565 7.864661 86.36126 22.6038 -13.77846 -0 0 8.882957 -19.72036 13.27597 11.69747 2.906231 -17.50984 -5.62181 -80.53917 23.26435 5.835465 0 0 -17.57216 -2.340363 9.382356 14.71419
38.29812 104.5381 319.528 2.532687 -7.337733 7.157663 -1.647205 -19.13918 0.9239163 -0 29.36162 -0 0.6299006 -7.488374 -11.90039 -4.560822 13.82049 -7.919912 -0 13.9187 -0 -5.482195 -19.90972 12.98704 -3.014686 1.939424 1.34989 0.8931843 7.308148 -8.887399 2.291377 21.13641 6.482653 2.322696 -17.38444 8.481541 1.100794 -13.02477 7.237114 87.32033 23.06767 -16.21449 -0 0 6.326103 -18.67239 13.50969 10.67806 3.510178 -18.33025 -5.842697 -78.62751 23.1677 2.683767 0 0 -19.35054 -1.46639 10.01302 13.36264
38.82225 103.0332 325.5959 2.957747 -7.159169 8.329941 -2.299313 -22.52082 0.8959756 -0 21.42189 -0 -1.352439 -7.986761 -12.25975 -4.507564 17.38303 -7.896035 -0 13.98557 -0 -5.75942 -21.27882 12.38338 -3.199484 2.027229 1.149778 1.128823 6.991379 -9.0219 2.369139 21.21211 6.39764 2.227774 -17.41104 8.557367 0.8705658 -11.82621 6.953536 88.51812 23.53515 -18.25798 -0 0 3.66821 -17.40137 13.86391 9.549611 3.981634 -19.29271 -5.728358 -76.7579 22.9 -0.4313098 0 0 -21.0234 -0.5175121 10.62193 11.93923
39.08938 101.7964 331.59 3.088408 -6.925711 8.822329 -1.910557 -25.14659 0.5006905 -0 16.52319 -0 -2.987587 -8.380881 -12.52161 -4.141353 20.21363 -7.625738 -0 15.25047 -0 -6.331783 -21.81221 12.03023 -3.253459 2.472305 1.00724 1.220887 6.722491 -8.929338 2.439383 21.3215 6.185539 2.152584 -17.53772 8.443743 0.8638452 -10.86809 6.950612 89.68868 23.98293 -19.70638 -0 0 1.330778 -16.37827 14.2083 8.784699 4.463307 -20.20741 -5.441376 -75.23145 22.5295 -2.723132 0 0 -22.21666 0.4287826 11.18327 10.61131
